<svg id="XMLID_632_" xmlns="http://www.w3.org/2000/svg" xmlns:xlink="http://www.w3.org/1999/xlink" width="24" height="24" viewBox="0 0 24 24">
  <defs>
    <linearGradient id="linear-gradient" x1="0.5" x2="0.5" y2="1" gradientUnits="objectBoundingBox">
      <stop offset="0" stop-color="#f452ff"/>
      <stop offset="1" stop-color="#832bc1"/>
    </linearGradient>
  </defs>
  <path id="XMLID_662_" d="M23.528,20.8a5.057,5.057,0,0,1-1.536,2.016,5.137,5.137,0,0,1-1.688.88,10.318,10.318,0,0,1-2.9.3H6.6a10.661,10.661,0,0,1-2.9-.3,4.991,4.991,0,0,1-1.688-.88A5.078,5.078,0,0,1,.472,20.8,9.508,9.508,0,0,1,0,17.4H0V6.6H0A9.508,9.508,0,0,1,.472,3.2,5.057,5.057,0,0,1,2.008,1.184,5.137,5.137,0,0,1,3.7.3,10.661,10.661,0,0,1,6.6,0H17.4a10.661,10.661,0,0,1,2.9.3,4.991,4.991,0,0,1,1.688.88A5.078,5.078,0,0,1,23.528,3.2,9.353,9.353,0,0,1,24,6.6V17.4A9.508,9.508,0,0,1,23.528,20.8Z" transform="translate(0)" fill-rule="evenodd" fill="url(#linear-gradient)"/>
  <g id="Group_2629" data-name="Group 2629" transform="translate(3.634 2.712)">
    <path id="XMLID_657_" d="M128.126,166.04a1.091,1.091,0,0,0-.327-.7,2.467,2.467,0,0,0-1.772-.637,2.432,2.432,0,0,0-1.772.637,1.153,1.153,0,0,0-.327.7,9.063,9.063,0,0,0,.041,1.854c.065.751.188,1.756.343,2.769a11.034,11.034,0,0,0,.286,1.4,1.627,1.627,0,0,0,2.859,0,11.034,11.034,0,0,0,.286-1.4c.155-1.021.278-2.017.343-2.769A8.514,8.514,0,0,0,128.126,166.04Z" transform="translate(-117.661 -154.463)" fill="#fff"/>
    <path id="XMLID_655_" d="M129.419,107.509a2.009,2.009,0,1,1-2.009-2.009A2.008,2.008,0,0,1,129.419,107.509Z" transform="translate(-119.043 -99.794)" fill="#fff"/>
    <path id="XMLID_653_" d="M52.833,33.2A8.359,8.359,0,0,0,50.09,49.449a.113.113,0,0,0,.151-.119c-.04-.285-.087-.57-.119-.856a.314.314,0,0,0-.167-.23,7.3,7.3,0,1,1,5.82,0,.269.269,0,0,0-.167.23l-.119.856a.109.109,0,0,0,.151.119A8.359,8.359,0,0,0,52.833,33.2Z" transform="translate(-44.491 -33.2)" fill="#fff"/>
    <path id="XMLID_651_" d="M84.7,68.148a5.676,5.676,0,0,0-5.3,5.693,5.848,5.848,0,0,0,2.414,4.844.113.113,0,0,0,.172-.1,8.382,8.382,0,0,1-.008-.988.34.34,0,0,0-.109-.278,4.777,4.777,0,0,1-1.414-3.529,4.467,4.467,0,1,1,8.928.123,4.782,4.782,0,0,1-1.414,3.406.4.4,0,0,0-.109.278c.016.319.008.629-.008.98a.109.109,0,0,0,.172.1,5.857,5.857,0,0,0,2.414-4.77A5.632,5.632,0,0,0,84.7,68.148Z" transform="translate(-76.544 -65.46)" fill="#fff"/>
  </g>
</svg>
