<?xml version="1.0" encoding="utf-8"?>
<!-- Generator: Adobe Illustrator 26.2.1, SVG Export Plug-In . SVG Version: 6.00 Build 0)  -->
<svg version="1.1" id="CNEWS_-__ROUGE_485" xmlns="http://www.w3.org/2000/svg" xmlns:xlink="http://www.w3.org/1999/xlink" x="0px"
	 y="0px" viewBox="0 0 457.2 114.4" style="enable-background:new 0 0 457.2 114.4;" xml:space="preserve">
<style type="text/css">
	.st0{fill:#E2071B;}
	.st1{fill:#010202;}
	.st2{fill:#FFFFFF;}
</style>
<rect x="114" y="5.7" class="st0" width="337.4" height="102.9"/>
<path class="st1" d="M0,0v114.4h457.2V0H0z M451.4,108.6H114V5.7h337.4V108.6z"/>
<polygon class="st2" points="135.2,18.7 154.1,18.7 189,63.4 189,18.7 207.9,18.7 207.9,91.8 189,91.8 154.1,47.1 154.1,91.8 
	135.2,91.8 "/>
<polygon class="st2" points="241.2,34.8 241.2,47 262.5,47 262.5,63.1 241.2,63.1 241.2,75.7 263.8,75.7 263.8,91.8 222.3,91.8 
	222.3,18.7 263.8,18.7 263.8,34.8 "/>
<polygon class="st2" points="302.5,66 317.9,18.7 333,18.7 347.3,66 361.1,18.7 380.9,18.7 357.6,91.8 338.2,91.8 325,49.5 
	311,91.8 291.7,91.8 270,18.7 289.8,18.7 "/>
<g>
	<path class="st2" d="M424.2,37.6c-4.3-3.4-8.1-4.9-12.5-4.9c-4.6,0-8.1,2.7-8.1,6.4c0,1.3,0.7,2.7,1.7,3.6
		c2.1,1.8,2.8,2.1,11.4,4.6c12.7,3.7,17.9,9.7,17.9,20.5c0,8.3-2.5,14.7-7.4,19c-5.2,4.5-12.7,6.9-21.1,6.9
		c-8.6,0-17.5-2.9-25.3-8.2l8.1-15.4c5.9,5.2,11.2,7.5,16.7,7.5c5.6,0,9.2-2.9,9.2-7.1c0-4-2.5-5.8-11.4-8.5
		c-8.1-2.4-11.3-3.7-13.9-5.9c-3.8-3.2-5.8-8-5.8-14.5c0-14.7,10.1-24.7,24.8-24.7c7.7,0,15.8,2.1,23.1,5.9L424.2,37.6z"/>
	<path class="st2" d="M78.8,89c-0.1,0.8-0.5,1.4-0.5,1.4s-0.4,0.4-1.1,0.6c-9.3,3.8-19.7,2.5-19.7,2.5C40.7,91.6,30,81.3,26.6,67.9
		c-5.1-20,5-34.2,7.4-37.2c5.9-7.1,15.2-12.2,24.2-13.4c11.6-1.7,20.1,1.1,23.6,2.2c0,0,3.9,1.3,6.8,3.2c1.5,1,1.7,1.4,1.7,1.4
		s0.1,0.2-0.3,1.8l-2.7,14.3c-0.1,0.6-0.5,0.9-0.5,0.9s-0.2,0.1-1.6-0.8c-8.7-6.2-19-5.5-19-5.5c-7.8,0.5-16.8,4.6-19.5,14.9
		c-2.4,9.2,0.1,16.9,5.5,21.4c3.7,3.2,9.4,4.9,15.5,4.6c6.6-0.5,11.9-3.1,11.5-2.9c0,0,0.3-0.1,0.6-0.2c1.4-0.7,1.7-0.6,1.7-0.6
		s0.3,0.3,0.1,1.2L78.8,89z"/>
</g>
</svg>
