<svg id="Facebook_02_Button" data-name="Facebook 02_Button" xmlns="http://www.w3.org/2000/svg" width="32" height="31.807" viewBox="0 0 32 31.807">
  <g id="Facebook_Logo" transform="translate(-221 -7063)" opacity="0.9">
    <path id="Path_2136" data-name="Path 2136" d="M206.445,7112.208H219.91V7080.4h-32v31.807h13.5V7105h-8.527v-19.712h20.984V7105h-7.423Z" transform="translate(33.091 -17.402)" fill="#fff"/>
    <path id="Icon_awesome-facebook" data-name="Icon awesome-facebook" d="M32.563,16.563a16,16,0,1,0-18.5,15.806V21.188H10V16.563h4.065V13.037c0-4.01,2.387-6.225,6.043-6.225a24.624,24.624,0,0,1,3.582.312v3.935H21.67a2.313,2.313,0,0,0-2.607,2.5v3H23.5l-.71,4.625H19.063V32.369A16.006,16.006,0,0,0,32.563,16.563Z" transform="translate(220.438 7062.437)" fill="#fff"/>
  </g>
</svg>
