<svg height="32" viewBox="0 0 32 32" width="32" xmlns="http://www.w3.org/2000/svg"><path d="m83 89h-32v-32h32zm-15.973-26c-1.785 0-3.37.027-4.136.071a5.545 5.545 0 0 0 -5.82 5.816c-.095 1.662-.095 6.61 0 8.272a5.553 5.553 0 0 0 5.82 5.821c.766.043 2.35.07 4.136.07s3.37-.027 4.136-.07a5.553 5.553 0 0 0 5.82-5.821c.095-1.661.095-6.606 0-8.267a5.551 5.551 0 0 0 -5.82-5.82c-.763-.045-2.351-.072-4.136-.072zm1.773 18.256c-.378 0-.738 0-1.056-.007h-.006c-.258 0-.5-.005-.708-.005s-.438 0-.689 0h-.009c-.311 0-.663.006-1.031.006a14.391 14.391 0 0 1 -4.181-.414 3.381 3.381 0 0 1 -1.905-1.905 18.053 18.053 0 0 1 -.408-5.2c0-.26.005-.506.005-.713s0-.442 0-.7a18.268 18.268 0 0 1 .408-5.214 3.385 3.385 0 0 1 1.905-1.905 14.128 14.128 0 0 1 4.141-.415c.374 0 .735 0 1.054.007h.008c.258 0 .5.005.708.005s.443 0 .7 0c.314 0 .667-.006 1.033-.006a14.392 14.392 0 0 1 4.181.414 3.385 3.385 0 0 1 1.905 1.905 18.055 18.055 0 0 1 .408 5.2c0 .26-.005.505-.005.713s0 .453.005.713a18.036 18.036 0 0 1 -.408 5.2 3.381 3.381 0 0 1 -1.905 1.905 14.127 14.127 0 0 1 -4.15.416zm-1.771-13.372a5.133 5.133 0 1 0 3.638 1.5 5.109 5.109 0 0 0 -3.638-1.5zm5.351-1.409a1.2 1.2 0 1 0 1.2 1.2 1.2 1.2 0 0 0 -1.2-1.199zm-5.351 9.891a3.342 3.342 0 1 1 3.342-3.342 3.345 3.345 0 0 1 -3.342 3.343z" fill="#fff" opacity=".9" transform="translate(-51 -57)"/></svg>