<svg xmlns="http://www.w3.org/2000/svg" width="22.027" height="22.022" viewBox="0 0 22.027 22.022">
  <path id="Instagram_icon" data-name="Instagram icon" d="M11.011,7.6a5.646,5.646,0,1,0,5.646,5.646A5.637,5.637,0,0,0,11.011,7.6Zm0,9.317a3.671,3.671,0,1,1,3.671-3.671,3.677,3.677,0,0,1-3.671,3.671ZM18.2,7.372a1.317,1.317,0,1,1-1.317-1.317A1.314,1.314,0,0,1,18.2,7.372Zm3.74,1.337a6.517,6.517,0,0,0-1.779-4.614,6.56,6.56,0,0,0-4.614-1.779c-1.818-.1-7.268-.1-9.086,0A6.551,6.551,0,0,0,1.851,4.089,6.539,6.539,0,0,0,.072,8.7c-.1,1.818-.1,7.268,0,9.086A6.517,6.517,0,0,0,1.851,22.4a6.568,6.568,0,0,0,4.614,1.779c1.818.1,7.268.1,9.086,0A6.517,6.517,0,0,0,20.165,22.4a6.56,6.56,0,0,0,1.779-4.614c.1-1.818.1-7.263,0-9.081ZM19.6,19.74A3.716,3.716,0,0,1,17.5,21.833c-1.45.575-4.889.442-6.491.442s-5.047.128-6.491-.442A3.716,3.716,0,0,1,2.426,19.74c-.575-1.45-.442-4.889-.442-6.491S1.856,8.2,2.426,6.757A3.716,3.716,0,0,1,4.519,4.664c1.45-.575,4.889-.442,6.491-.442s5.047-.128,6.491.442A3.716,3.716,0,0,1,19.6,6.757c.575,1.45.442,4.889.442,6.491S20.17,18.3,19.6,19.74Z" transform="translate(0.005 -2.238)" fill="#fff"/>
</svg>
