<svg xmlns="http://www.w3.org/2000/svg" width="52" height="52" viewBox="0 0 52 52">
  <g id="Group_2548" data-name="Group 2548" transform="translate(-184)">
    <g id="Player_niveau_02" data-name="Player_niveau 02" transform="translate(184)">
      <g id="Path_100" data-name="Path 100" fill="#fff">
        <path d="M 26 51 C 22.62458038330078 51 19.35066032409668 50.33914184570312 16.26918029785156 49.03578948974609 C 13.29232025146484 47.77667999267578 10.61861038208008 45.97394943237305 8.322330474853516 43.67766952514648 C 6.026050090789795 41.38138961791992 4.223320007324219 38.70767974853516 2.964210033416748 35.73081970214844 C 1.660859942436218 32.64934158325195 1 29.37541961669922 1 26 C 1 22.62458038330078 1.660859942436218 19.35066032409668 2.964210033416748 16.26918029785156 C 4.223320007324219 13.29232025146484 6.026050090789795 10.61861038208008 8.322330474853516 8.322330474853516 C 10.61861038208008 6.026050090789795 13.29232025146484 4.223320007324219 16.26918029785156 2.964210033416748 C 19.35066032409668 1.660859942436218 22.62458038330078 1 26 1 C 29.37541961669922 1 32.64934158325195 1.660859942436218 35.73081970214844 2.964210033416748 C 38.70767974853516 4.223320007324219 41.38138961791992 6.026050090789795 43.67766952514648 8.322330474853516 C 45.97394943237305 10.61861038208008 47.77667999267578 13.29232025146484 49.03578948974609 16.26918029785156 C 50.33914184570312 19.35066032409668 51 22.62458038330078 51 26 C 51 29.37541961669922 50.33914184570312 32.64934158325195 49.03578948974609 35.73081970214844 C 47.77667999267578 38.70767974853516 45.97394943237305 41.38138961791992 43.67766952514648 43.67766952514648 C 41.38138961791992 45.97394943237305 38.70767974853516 47.77667999267578 35.73081970214844 49.03578948974609 C 32.64934158325195 50.33914184570312 29.37541961669922 51 26 51 Z" stroke="none"/>
        <path d="M 26 2 C 22.75914001464844 2 19.61627960205078 2.634281158447266 16.65872955322266 3.885219573974609 C 13.80107116699219 5.093910217285156 11.23419952392578 6.824668884277344 9.029441833496094 9.029441833496094 C 6.824668884277344 11.23419952392578 5.093910217285156 13.80107116699219 3.885219573974609 16.65872955322266 C 2.634281158447266 19.61627960205078 2 22.75914001464844 2 26 C 2 29.24085998535156 2.634281158447266 32.38372039794922 3.885219573974609 35.34127044677734 C 5.093910217285156 38.19892883300781 6.824668884277344 40.76580047607422 9.029441833496094 42.97055816650391 C 11.23419952392578 45.17533111572266 13.80107116699219 46.90608978271484 16.65872955322266 48.11478042602539 C 19.61627960205078 49.36571884155273 22.75914001464844 50 26 50 C 29.24085998535156 50 32.38372039794922 49.36571884155273 35.34127044677734 48.11478042602539 C 38.19892883300781 46.90608978271484 40.76580047607422 45.17533111572266 42.97055816650391 42.97055816650391 C 45.17533111572266 40.76580047607422 46.90608978271484 38.19892883300781 48.11478042602539 35.34127044677734 C 49.36571884155273 32.38372039794922 50 29.24085998535156 50 26 C 50 22.75914001464844 49.36571884155273 19.61627960205078 48.11478042602539 16.65872955322266 C 46.90608978271484 13.80107116699219 45.17533111572266 11.23419952392578 42.97055816650391 9.029441833496094 C 40.76580047607422 6.824668884277344 38.19892883300781 5.093910217285156 35.34127044677734 3.885219573974609 C 32.38372039794922 2.634281158447266 29.24085998535156 2 26 2 M 26 0 C 40.35939788818359 0 52 11.64059829711914 52 26 C 52 40.35939788818359 40.35939788818359 52 26 52 C 11.64059829711914 52 0 40.35939788818359 0 26 C 0 11.64059829711914 11.64059829711914 0 26 0 Z" stroke="none" fill="#000"/>
      </g>
      <g id="Polygon_3" data-name="Polygon 3" transform="translate(38 14) rotate(90)" fill="#db3d33">
        <path d="M 21.35071563720703 18.5 L 2.649283885955811 18.5 L 12 2.915473222732544 L 21.35071563720703 18.5 Z" stroke="none"/>
        <path d="M 12 5.83095645904541 L 5.298574447631836 17 L 18.70142555236816 17 L 12 5.83095645904541 M 12 0 L 24 20 L 0 20 L 12 0 Z" stroke="none" fill="#db3d33"/>
      </g>
    </g>
  </g>
</svg>
