<svg xmlns="http://www.w3.org/2000/svg" width="24" height="24" viewBox="0 0 24 24">
  <g id="Loto_Picto" transform="translate(-49 -728)">
    <g id="Ellipse_136" data-name="Ellipse 136" transform="translate(49 728)" fill="none" stroke="#fff" stroke-width="1.5">
      <circle cx="12" cy="12" r="12" stroke="none"/>
      <circle cx="12" cy="12" r="11.25" fill="none"/>
    </g>
    <path id="Exclusion_3" data-name="Exclusion 3" d="M-11821,22956a7.008,7.008,0,0,1-7-7,7.008,7.008,0,0,1,7-7,7.008,7.008,0,0,1,7,7A7.008,7.008,0,0,1-11821,22956Zm1.228-8.693a.547.547,0,0,1,.524.588,1.354,1.354,0,0,1-.276.766c-.022.031-.043.063-.069.105-.007.012-.014.021-.021.031s-.014.021-.021.031a10.217,10.217,0,0,1-.823.979l-1.141,1.193h3.612v-.992h-1.36l.646-.7a3.372,3.372,0,0,0,.479-.627,1.664,1.664,0,0,0,.19-.76,1.5,1.5,0,0,0-.5-1.152,1.755,1.755,0,0,0-1.244-.455,1.652,1.652,0,0,0-1.6,1,1.469,1.469,0,0,0-.121.49l-.023.24h1.216a1.28,1.28,0,0,1,.04-.373A.464.464,0,0,1-11819.771,22947.307Zm-4.367-.807h0v.99h.634v3.51h1.17v-4.5Z" transform="translate(11882 -22209)" fill="#fff"/>
  </g>
</svg>
