<svg xmlns="http://www.w3.org/2000/svg" width="24.75" height="23.225" viewBox="0 0 24.75 23.225">
  <g id="Metéo_Icon" transform="translate(0.75)">
    <g id="Path_17" data-name="Path 17" transform="translate(-213.996 -92.152)" fill="#fff">
      <path d="M 232.0264129638672 104.1980361938477 C 230.9987030029297 103.0465850830078 229.5456695556641 102.391357421875 228.0003051757812 102.391357421875 C 227.8322906494141 102.391357421875 227.6628570556641 102.3993453979492 227.49462890625 102.4151611328125 C 226.8530731201172 101.4784088134766 225.9850311279297 100.7331695556641 224.9674224853516 100.2450942993164 C 225.1050720214844 99.24726867675781 225.5876770019531 98.32803344726562 226.339111328125 97.63999176025391 C 227.1419677734375 96.90485382080078 228.1824798583984 96.49999237060547 229.2689361572266 96.49999237060547 C 230.8750457763672 96.49999237060547 232.2947082519531 97.34261322021484 233.0664978027344 98.75401306152344 C 233.8448028564453 100.1772918701172 233.7932281494141 101.8324661254883 232.9285278320312 103.1816024780273 C 232.6810302734375 103.5679168701172 232.3782958984375 103.9088973999023 232.0264129638672 104.1980361938477 Z" stroke="none"/>
      <path d="M 232.0449676513672 103.5002746582031 C 232.2170715332031 103.3204727172852 232.3717041015625 103.1238555908203 232.507568359375 102.9117965698242 C 233.2721099853516 101.7189483642578 233.3170471191406 100.2543182373047 232.6278076171875 98.99390411376953 C 231.945068359375 97.74538421630859 230.6894073486328 96.99999237060547 229.2689361572266 96.99999237060547 C 228.3078002929688 96.99999237060547 227.38720703125 97.35824584960938 226.6767578125 98.00875091552734 C 226.0987701416016 98.53799438476562 225.7005004882812 99.22144317626953 225.5261688232422 99.97038269042969 C 226.3916168212891 100.4462966918945 227.1441497802734 101.1013717651367 227.7387084960938 101.8972091674805 C 229.3509063720703 101.8252410888672 230.8922119140625 102.4106597900391 232.0449676513672 103.5002746582031 M 231.9898223876953 104.7983703613281 C 231.9209594726562 104.7983703613281 231.8526000976562 104.7676620483398 231.8060150146484 104.7102508544922 C 230.739501953125 103.3965225219727 229.0766754150391 102.7177505493164 227.3902130126953 102.929557800293 L 227.3901824951172 102.929557800293 C 227.3029479980469 102.9404907226562 227.2161254882812 102.9010162353516 227.1682586669922 102.8270111083984 C 226.5365295410156 101.851806640625 225.6373138427734 101.0847320556641 224.5846557617188 100.6191711425781 C 224.4935150146484 100.5789031982422 224.4387054443359 100.484130859375 224.4479827880859 100.3849182128906 C 224.6788177490234 97.92830657958984 226.7527465820312 95.99999237060547 229.2689361572266 95.99999237060547 C 233.1249237060547 95.99999237060547 235.3819427490234 100.2802810668945 233.3494873046875 103.4514083862305 C 233.0233306884766 103.9605026245117 232.6073913574219 104.4015350341797 232.1242828369141 104.7545318603516 C 232.0836791992188 104.7841796875 232.0366363525391 104.7983703613281 231.9898223876953 104.7983703613281 Z" stroke="none" fill="#387a20"/>
    </g>
    <path id="Path_23" data-name="Path 23" d="M17.347,223.289a3.419,3.419,0,0,0-4.9-3.722,4.44,4.44,0,0,0-8.67,1.686,4.1,4.1,0,0,0,.324,8.183H17.415a3.074,3.074,0,1,0-.068-6.147Z" transform="translate(0 -206.961)" fill="none" stroke="#fff" stroke-width="1.5"/>
    <line id="Line_370" data-name="Line 370" y1="3.225" transform="translate(15.273)" fill="none" stroke="#fff" stroke-width="1.5"/>
    <line id="Line_371" data-name="Line 371" y1="3.225" transform="translate(24 8.691) rotate(90)" fill="none" stroke="#fff" stroke-width="1.5"/>
    <line id="Line_372" data-name="Line 372" y1="3.225" transform="translate(21.418 2.566) rotate(45)" fill="none" stroke="#fff" stroke-width="1.5"/>
    <line id="Line_373" data-name="Line 373" y1="3.225" transform="translate(9.104 2.566) rotate(-45)" fill="none" stroke="#fff" stroke-width="1.5"/>
    <line id="Line_374" data-name="Line 374" y1="3.225" transform="translate(19.139 12.555) rotate(-45)" fill="none" stroke="#fff" stroke-width="1.5"/>
  </g>
</svg>
