<svg id="Group_2559" data-name="Group 2559" xmlns="http://www.w3.org/2000/svg" width="16" height="16" viewBox="0 0 16 16">
  <path id="Icon_material-access-time" data-name="Icon material-access-time" d="M10.992,3A8,8,0,1,0,19,11,8,8,0,0,0,10.992,3ZM11,17.4A6.4,6.4,0,1,1,17.4,11,6.4,6.4,0,0,1,11,17.4Z" transform="translate(-3 -3)"/>
  <path id="Union_1" data-name="Union 1" d="M4.74,4.74H9.481A4.739,4.739,0,0,1,4.74,9.48Zm0,0V0A4.739,4.739,0,0,1,9.481,4.74ZM0,4.74A4.738,4.738,0,0,1,4.74,0V4.74Z" transform="translate(12.74 3.26) rotate(90)" fill="#db3d33"/>
</svg>
