<svg id="Player_niveau_01" data-name="Player_niveau 01" xmlns="http://www.w3.org/2000/svg" width="104" height="104" viewBox="0 0 104 104">
  <g id="Path_100" data-name="Path 100" fill="rgba(0,0,0,0.6)">
    <path d="M 52 102.5 C 45.181884765625 102.5 38.56851577758789 101.1650009155273 32.34358596801758 98.53207397460938 C 26.33025741577148 95.98865509033203 20.92942810058594 92.34719848632812 16.29111480712891 87.70888519287109 C 11.65279960632324 83.07057189941406 8.011343002319336 77.66974639892578 5.467928409576416 71.65641784667969 C 2.835000038146973 65.43148803710938 1.5 58.818115234375 1.5 52 C 1.5 45.181884765625 2.835000038146973 38.56851577758789 5.467928409576416 32.34358596801758 C 8.011343002319336 26.33025741577148 11.65279960632324 20.92942810058594 16.29111480712891 16.29111480712891 C 20.92942810058594 11.65279960632324 26.33025741577148 8.011343002319336 32.34358596801758 5.467928409576416 C 38.56851577758789 2.835000038146973 45.181884765625 1.5 52 1.5 C 58.818115234375 1.5 65.43148803710938 2.835000038146973 71.65641784667969 5.467928409576416 C 77.66974639892578 8.011343002319336 83.07057189941406 11.65279960632324 87.70888519287109 16.29111480712891 C 92.34719848632812 20.92942810058594 95.98865509033203 26.33025741577148 98.53207397460938 32.34358596801758 C 101.1650009155273 38.56851577758789 102.5 45.181884765625 102.5 52 C 102.5 58.818115234375 101.1650009155273 65.43148803710938 98.53207397460938 71.65641784667969 C 95.98865509033203 77.66974639892578 92.34719848632812 83.07057189941406 87.70888519287109 87.70888519287109 C 83.07057189941406 92.34719848632812 77.66974639892578 95.98865509033203 71.65641784667969 98.53207397460938 C 65.43148803710938 101.1650009155273 58.818115234375 102.5 52 102.5 Z" stroke="none"/>
    <path d="M 52 3 C 45.38371658325195 3 38.96694946289062 4.295135498046875 32.92791748046875 6.849433898925781 C 27.0933837890625 9.317230224609375 21.85281372070312 12.85073089599609 17.35176849365234 17.35176849365234 C 12.85073089599609 21.85281372070312 9.317230224609375 27.0933837890625 6.849433898925781 32.92791748046875 C 4.295135498046875 38.96694946289062 3 45.38371658325195 3 52 C 3 58.61628341674805 4.295135498046875 65.03305053710938 6.849433898925781 71.07208251953125 C 9.317230224609375 76.9066162109375 12.85073089599609 82.14718627929688 17.35176849365234 86.64823150634766 C 21.85281372070312 91.14926910400391 27.0933837890625 94.68276977539062 32.92791748046875 97.15056610107422 C 38.96694946289062 99.70486450195312 45.38371658325195 101 52 101 C 58.61628341674805 101 65.03305053710938 99.70486450195312 71.07208251953125 97.15056610107422 C 76.9066162109375 94.68276977539062 82.14718627929688 91.14926910400391 86.64823150634766 86.64823150634766 C 91.14926910400391 82.14718627929688 94.68276977539062 76.9066162109375 97.15056610107422 71.07208251953125 C 99.70486450195312 65.03305053710938 101 58.61628341674805 101 52 C 101 45.38371658325195 99.70486450195312 38.96694946289062 97.15056610107422 32.92791748046875 C 94.68276977539062 27.0933837890625 91.14926910400391 21.85281372070312 86.64823150634766 17.35176849365234 C 82.14718627929688 12.85073089599609 76.9066162109375 9.317230224609375 71.07208251953125 6.849433898925781 C 65.03305053710938 4.295135498046875 58.61628341674805 3 52 3 M 52 0 C 80.71879577636719 0 104 23.28119659423828 104 52 C 104 80.71879577636719 80.71879577636719 104 52 104 C 23.28119659423828 104 0 80.71879577636719 0 52 C 0 23.28119659423828 23.28119659423828 0 52 0 Z" stroke="none" fill="#fff"/>
  </g>
  <g id="Polygon_3" data-name="Polygon 3" transform="translate(76 28) rotate(90)" fill="#fff">
    <path d="M 45.35071563720703 38.5 L 2.649283885955811 38.5 L 24 2.915475130081177 L 45.35071563720703 38.5 Z" stroke="none"/>
    <path d="M 24 5.830959320068359 L 5.298572540283203 37 L 42.7014274597168 37 L 24 5.830959320068359 M 24 3.814697265625e-06 L 48 40 L 0 40 L 24 3.814697265625e-06 Z" stroke="none" fill="#fff"/>
  </g>
</svg>
