<?xml version="1.0" encoding="utf-8"?>
<!-- Generator: Adobe Illustrator 26.2.1, SVG Export Plug-In . SVG Version: 6.00 Build 0)  -->
<svg version="1.1" id="Calque_1" xmlns="http://www.w3.org/2000/svg" xmlns:xlink="http://www.w3.org/1999/xlink" x="0px" y="0px"
	 viewBox="0 0 2500 2500" style="enable-background:new 0 0 2500 2500;" xml:space="preserve">
<style type="text/css">
	.st0{fill:#E7E7E7;}
</style>
<path class="st0" d="M2500,0.4H0v2500h2500 M1964.6,1091.1c-13.7,1.3-27.4,2-41.1,2.1c-150.4,0-290.7-75.8-373.2-201.7v845.2
	c0,58.6-24.2,114.7-66.9,154.9c-435.2,409.2-948.2,107.8-948.2-313.3c0-280.3,227.2-507.6,507.6-507.6l0,0c10.6,0,21,1,31.4,1.6
	v250.1c-10.4-1.2-20.7-3.2-31.4-3.2c-143.1,0-259,116-259,259s116,259,259,259c143.1,0,269.5-112.7,269.5-255.8l2.5-1166.3h239.3
	c22.6,214.6,195.6,382.2,410.8,397.9v278"/>
</svg>
