<svg xmlns="http://www.w3.org/2000/svg" xmlns:xlink="http://www.w3.org/1999/xlink" width="40" zoomAndPan="magnify" viewBox="0 0 30 30.000001" height="40" preserveAspectRatio="xMidYMid meet" version="1.0"><defs><clipPath id="d9e30cd672"><path d="M 0.484375 0 L 29.515625 0 L 29.515625 29.03125 L 0.484375 29.03125 Z M 0.484375 0 " clip-rule="nonzero"/></clipPath><clipPath id="fea24b0bc8"><path d="M 6.035156 7.367188 L 24.183594 7.367188 L 24.183594 23.335938 L 6.035156 23.335938 Z M 6.035156 7.367188 " clip-rule="nonzero"/></clipPath></defs><g clip-path="url(#d9e30cd672)"><path fill="#ffffff" d="M 0.484375 0 L 29.515625 0 L 29.515625 29.03125 L 0.484375 29.03125 Z M 0.484375 0 " fill-opacity="1" fill-rule="nonzero"/><path fill="#e8e8e8" d="M 0.484375 0 L 29.515625 0 L 29.515625 29.03125 L 0.484375 29.03125 Z M 0.484375 0 " fill-opacity="1" fill-rule="nonzero"/></g><g clip-path="url(#fea24b0bc8)"><path fill="#000000" d="M 20.304688 7.367188 L 23.082031 7.367188 L 16.980469 14.144531 L 24.109375 23.335938 L 18.515625 23.335938 L 14.136719 17.75 L 9.125 23.335938 L 6.347656 23.335938 L 12.808594 16.085938 L 5.984375 7.367188 L 11.714844 7.367188 L 15.671875 12.46875 Z M 19.332031 21.742188 L 20.871094 21.742188 L 10.90625 8.898438 L 9.253906 8.898438 Z M 19.332031 21.742188 " fill-opacity="1" fill-rule="nonzero"/></g></svg>